<svg xmlns="http://www.w3.org/2000/svg" width="40" height="40" viewBox="0 0 40 40"><g transform="translate(0 40) rotate(-90)"><g fill="none"><path d="M20,0A20,20,0,1,1,0,20,20,20,0,0,1,20,0Z" stroke="none"/><path d="M 20 2 C 15.19202041625977 2 10.67182922363281 3.872329711914063 7.272079467773438 7.272079467773438 C 3.872329711914063 10.67182922363281 2 15.19202041625977 2 20 C 2 24.80797958374023 3.872329711914063 29.32817077636719 7.272079467773438 32.72792053222656 C 10.67182922363281 36.12767028808594 15.19202041625977 38 20 38 C 24.80797958374023 38 29.32817077636719 36.12767028808594 32.72792053222656 32.72792053222656 C 36.12767028808594 29.32817077636719 38 24.80797958374023 38 20 C 38 15.19202041625977 36.12767028808594 10.67182922363281 32.72792053222656 7.272079467773438 C 29.32817077636719 3.872329711914063 24.80797958374023 2 20 2 M 20 0 C 31.04570007324219 0 40 8.954299926757813 40 20 C 40 31.04570007324219 31.04570007324219 40 20 40 C 8.954299926757813 40 0 31.04570007324219 0 20 C 0 8.954299926757813 8.954299926757813 0 20 0 Z" stroke="none" fill="#070973"/></g><g transform="translate(12.077 13.534)"><g transform="translate(7.977 15.954) rotate(-135)" fill="#fff"><path d="M 10.42739963531494 10.7814998626709 L 0.8549999594688416 10.7814998626709 C 0.6592499017715454 10.7814998626709 0.4999999403953552 10.62224960327148 0.4999999403953552 10.42650032043457 C 0.4999999403953552 10.23124980926514 0.6592499017715454 10.07240009307861 0.8549999594688416 10.07240009307861 L 9.572400093078613 10.07240009307861 L 10.07240009307861 10.07240009307861 L 10.07240009307861 9.572400093078613 L 10.07240009307861 0.8540999293327332 C 10.07240009307861 0.6588499546051025 10.23165035247803 0.4999999403953552 10.42739963531494 0.4999999403953552 C 10.62265014648438 0.4999999403953552 10.7814998626709 0.6588499546051025 10.7814998626709 0.8540999293327332 L 10.7814998626709 10.42650032043457 C 10.7814998626709 10.62224960327148 10.62265014648438 10.7814998626709 10.42739963531494 10.7814998626709 Z" stroke="none"/><path d="M 10.42739963531494 11.2814998626709 L 0.8549999594688416 11.2814998626709 C 0.3824999332427979 11.2814998626709 -6.866454782539222e-08 10.89900016784668 -6.866454782539222e-08 10.42650032043457 C -6.866454782539222e-08 9.954899787902832 0.3824999332427979 9.572400093078613 0.8549999594688416 9.572400093078613 L 9.572400093078613 9.572400093078613 L 9.572400093078613 0.8540999293327332 C 9.572400093078613 0.3824999332427979 9.954899787902832 -6.866454782539222e-08 10.42739963531494 -6.866454782539222e-08 C 10.89900016784668 -6.866454782539222e-08 11.2814998626709 0.3824999332427979 11.2814998626709 0.8540999293327332 L 11.2814998626709 10.42650032043457 C 11.2814998626709 10.89900016784668 10.89900016784668 11.2814998626709 10.42739963531494 11.2814998626709 Z" stroke="none" fill="#070973"/></g></g></g></svg>