<?xml version="1.0" encoding="UTF-8" standalone="no"?>
<svg
   xmlns:dc="http://purl.org/dc/elements/1.1/"
   xmlns:cc="http://creativecommons.org/ns#"
   xmlns:rdf="http://www.w3.org/1999/02/22-rdf-syntax-ns#"
   xmlns:svg="http://www.w3.org/2000/svg"
   xmlns="http://www.w3.org/2000/svg"
   xmlns:sodipodi="http://sodipodi.sourceforge.net/DTD/sodipodi-0.dtd"
   xmlns:inkscape="http://www.inkscape.org/namespaces/inkscape"
   width="40"
   height="40"
   viewBox="0 0 40 40"
   version="1.1"
   id="svg1385"
   sodipodi:docname="btn_back_disabled.svg"
   inkscape:version="1.0.1 (3bc2e813f5, 2020-09-07)">
  <metadata
     id="metadata1391">
    <rdf:RDF>
      <cc:Work
         rdf:about="">
        <dc:format>image/svg+xml</dc:format>
        <dc:type
           rdf:resource="http://purl.org/dc/dcmitype/StillImage" />
        <dc:title></dc:title>
      </cc:Work>
    </rdf:RDF>
  </metadata>
  <defs
     id="defs1389" />
  <sodipodi:namedview
     pagecolor="#ffffff"
     bordercolor="#666666"
     borderopacity="1"
     objecttolerance="10"
     gridtolerance="10"
     guidetolerance="10"
     inkscape:pageopacity="0"
     inkscape:pageshadow="2"
     inkscape:window-width="1920"
     inkscape:window-height="1001"
     id="namedview1387"
     showgrid="false"
     inkscape:zoom="20.025"
     inkscape:cx="18.451935"
     inkscape:cy="20"
     inkscape:window-x="-9"
     inkscape:window-y="-9"
     inkscape:window-maximized="1"
     inkscape:current-layer="g1381"
     inkscape:document-rotation="0" />
  <g
     transform="rotate(-90,20,20)"
     id="g1383">
    <g
       fill="none"
       id="g1373">
      <path
         d="M 20,0 A 20,20 0 1 1 0,20 20,20 0 0 1 20,0 Z"
         stroke="none"
         id="path1369" />
      <path
         d="M 20,2 C 15.19202,2 10.671829,3.8723297 7.2720795,7.2720795 3.8723297,10.671829 2,15.19202 2,20 2,24.80798 3.8723297,29.328171 7.2720795,32.727921 10.671829,36.12767 15.19202,38 20,38 24.80798,38 29.328171,36.12767 32.727921,32.727921 36.12767,29.328171 38,24.80798 38,20 38,15.19202 36.12767,10.671829 32.727921,7.2720795 29.328171,3.8723297 24.80798,2 20,2 M 20,0 C 31.0457,0 40,8.9542999 40,20 40,31.0457 31.0457,40 20,40 8.9542999,40 0,31.0457 0,20 0,8.9542999 8.9542999,0 20,0 Z"
         stroke="none"
         fill="#070973"
         id="path1371"
         style="fill:#999999;fill-opacity:1" />
    </g>
    <g
       transform="translate(12.077,13.534)"
       id="g1381">
      <g
         transform="rotate(-135,7.2925852,6.3246765)"
         fill="#ffffff"
         id="g1379"
         style="fill:#999999;fill-opacity:1">
        <path
           d="M 10.4274,10.7815 H 0.85499996 c -0.19575006,0 -0.35500002,-0.15925 -0.35500002,-0.355 0,-0.19525 0.15924996,-0.3541 0.35500002,-0.3541 H 9.5724001 10.0724 V 9.5724001 0.85409993 c 0,-0.19524998 0.15925,-0.35409999 0.355,-0.35409999 0.19525,0 0.3541,0.15885001 0.3541,0.35409999 V 10.4265 c 0,0.19575 -0.15885,0.355 -0.3541,0.355 z"
           stroke="none"
           id="path1375"
           style="fill:#999999;fill-opacity:1" />
        <path
           d="M 10.4274,11.2815 H 0.85499996 C 0.38249993,11.2815 -6.8664548e-8,10.899 -6.8664548e-8,10.4265 -6.8664548e-8,9.9548998 0.38249993,9.5724001 0.85499996,9.5724001 H 9.5724001 V 0.85409993 C 9.5724001,0.38249993 9.9548998,-6.8664548e-8 10.4274,-6.8664548e-8 10.899,-6.8664548e-8 11.2815,0.38249993 11.2815,0.85409993 V 10.4265 c 0,0.4725 -0.3825,0.855 -0.8541,0.855 z"
           stroke="none"
           fill="#070973"
           id="path1377"
           style="fill:#999999;fill-opacity:1" />
      </g>
    </g>
  </g>
</svg>
