<svg xmlns="http://www.w3.org/2000/svg" width="187.889" height="209.138" viewBox="0 0 187.889 209.138"><defs><style>.a{fill:#b4e4fa;}.b{fill:#fff;}.b,.c,.d,.e,.f,.g{stroke:#0a0b45;stroke-linecap:round;stroke-linejoin:round;stroke-width:3px;}.c{fill:#dfe8ed;}.d{fill:none;}.e{fill:#ed7d31;}.f{fill:#8ed92b;}.g{fill:#b4e473;}</style></defs><g transform="translate(-275.113 -331.633)"><path class="a" d="M467.243,401.493h0A142.452,142.452,0,0,0,318.033,477.52h0a26.763,26.763,0,0,0,4.921,31.074l59.435,59.435a26.763,26.763,0,0,0,31.074,4.922h0A142.452,142.452,0,0,0,489.49,423.74h0A26.762,26.762,0,0,0,467.243,401.493Z" transform="translate(-40.002 -35.098)"/><g transform="translate(285.751 333.133)"><path class="b" d="M412.365,446.025V481.7a8.8,8.8,0,0,1-8.77,8.77H294.521a8.8,8.8,0,0,1-8.77-8.77V341.9a8.8,8.8,0,0,1,8.77-8.77H386l26.368,26.37V400.22" transform="translate(-285.751 -333.133)"/><path class="c" d="M593.4,363.766h-24.61v-24.61" transform="translate(-468.91 -337.031)"/><g transform="translate(87.033 29.638)"><g transform="translate(70.394 6.211)"><path class="d" d="M733.5,467.643l15.534-18.513-17.17-14.407" transform="translate(-731.866 -434.722)"/></g><path class="e" d="M748.95,432.722l5.914-7.048a5.206,5.206,0,0,0-.642-7.333h0a5.2,5.2,0,0,0-7.333.642l-5.914,7.048" transform="translate(-667.367 -417.122)"/><path class="e" d="M604.691,439.269l-67.763,80.757-4.543,16.156,15.122-7.28,67.763-80.756Z" transform="translate(-532.385 -431.454)"/><line class="f" x2="10.575" y2="8.874" transform="translate(4.542 88.58)"/></g><g transform="translate(14.68 29.326)"><g transform="translate(0 4.579)"><line class="b" x2="34.717"/><line class="b" x2="10.351" transform="translate(24.365 11.181)"/><line class="b" x2="14.078" transform="translate(0 11.181)"/></g><g transform="translate(43.984)"><path class="g" d="M470.991,434.047v2.53h-19V416.238h19v1.4" transform="translate(-451.993 -416.238)"/><path class="d" d="M470.074,434.936l3.653,4.964,12.471-9.177" transform="translate(-463.694 -425.612)"/></g><g transform="translate(0 43.712)"><line class="b" x2="29.126"/><line class="b" x2="15.942" transform="translate(18.775 11.181)"/><line class="b" x2="19.668" transform="translate(0 11.181)"/></g><g transform="translate(43.984 40.827)"><path class="c" d="M467.825,544.87v4.014H451.993v-16.95h15.832V533.1" transform="translate(-451.993 -531.934)"/></g><g transform="translate(43.984 79.96)"><path class="c" d="M467.825,650.47v9.307H451.993v-16.95h15.832v1.432" transform="translate(-451.993 -642.828)"/></g><g transform="translate(0 82.844)"><line class="b" x2="34.717"/><line class="b" x2="16.465" transform="translate(18.252 11.181)"/><line class="b" x2="10.76" transform="translate(0 11.181)"/></g></g></g></g></svg>