<svg xmlns="http://www.w3.org/2000/svg" xmlns:xlink="http://www.w3.org/1999/xlink" width="432" height="461" viewBox="0 0 432 461"><defs><style>.a{clip-path:url(#b);}.b{fill:#b4e4fa;}.c{fill:none;stroke-width:6px;}.c,.d,.e,.f,.g,.h,.i{stroke:#004166;stroke-linecap:round;stroke-linejoin:round;}.d{fill:#ed7d31;}.d,.e,.f,.g,.h,.i{stroke-width:5px;}.e{fill:#ff0037;}.f{fill:#fff;}.g{fill:#8ed92b;}.h{fill:#dfe8ed;}.i{fill:#b4e473;}</style><clipPath id="b"><rect width="432" height="461"/></clipPath></defs><g id="a" class="a"><g transform="translate(-782 -1842)"><g transform="translate(789.82 1842.824)"><path class="b" d="M212.572,0c117.4,0,212.572,95.172,212.572,212.572S329.973,425.144,212.572,425.144,0,329.973,0,212.572,95.172,0,212.572,0Z" transform="translate(0 0)"/><g transform="translate(335.041 92.943)"><line class="c" x1="21.709" y2="4.756" transform="translate(0 8.476)"/><line class="c" x1="4.756" y1="21.709" transform="translate(8.476)"/></g><g transform="translate(130.276 83.879)"><g transform="translate(0 0)"><path class="d" d="M573.85,428.235,474.525,600.271a13.891,13.891,0,0,0,12.03,20.837h198.65a13.891,13.891,0,0,0,12.03-20.837L597.91,428.235A13.891,13.891,0,0,0,573.85,428.235Z" transform="translate(-472.644 -421.289)"/><path class="e" d="M791.464,558.068" transform="translate(-678.227 -509.488)"/></g><g transform="translate(96.129 48.34)"><path class="f" d="M777.373,576.658l-7.235,60.555a9.8,9.8,0,0,1-9.734,8.64h0a9.8,9.8,0,0,1-9.733-8.64l-7.235-60.555A17.106,17.106,0,0,1,760.4,557.392h0A17.105,17.105,0,0,1,777.373,576.658Z" transform="translate(-743.296 -557.392)"/><ellipse class="f" cx="11.136" cy="11.136" rx="11.136" ry="11.136" transform="translate(3.557 123.7) rotate(-75.632)"/></g></g><g transform="translate(239.409 335.46)"><line class="c" x2="64.096" transform="translate(34.545)"/><line class="c" x2="7.382" transform="translate(14.017)"/><line class="c" x1="0.458"/></g><ellipse class="c" cx="8.131" cy="8.131" rx="8.131" ry="8.131" transform="matrix(0.241, -0.971, 0.971, 0.241, 101.444, 173.166)"/></g><g transform="translate(783 2033)"><g transform="translate(0 24.108)"><path class="f" d="M472.02,523.778a12.7,12.7,0,0,1-10.433,14.551l-155.367,25.6A12.7,12.7,0,0,1,291.67,553.5L258.854,354.373a12.7,12.7,0,0,1,10.433-14.55l130.3-21.473,43.749,31.372Z" transform="translate(-258.685 -318.349)"/><path class="g" d="M566.168,367.529l-35.054,5.777-5.777-35.054" transform="translate(-389.496 -328.113)"/><g transform="translate(43.962 97.435)"><line class="f" y1="13.607" x2="82.566" transform="translate(4.562 21.514)"/><line class="f" y1="7.437" x2="45.13"/><line class="f" y1="11.427" x2="69.338" transform="translate(9.125 51.378)"/></g></g><g transform="translate(44.947 24.093)"><path class="f" d="M430.761,318.32h60.872L529.7,356.388V532.794a12.7,12.7,0,0,1-12.66,12.66H359.575a12.7,12.7,0,0,1-12.66-12.66V330.98a12.7,12.7,0,0,1,12.66-12.66H380.9" transform="translate(-346.915 -318.32)"/><path class="h" d="M665.481,359.87H629.954V324.343" transform="translate(-485.765 -321.275)"/><g transform="translate(32.016 93.729)"><line class="f" x2="83.68" transform="translate(0 28.057)"/><line class="f" x2="45.738"/><line class="f" x2="70.273" transform="translate(0 56.114)"/></g></g><path class="i" d="M447.34,286.767l11.04,35.714a6.262,6.262,0,0,1-4.133,7.832h0a6.262,6.262,0,0,1-7.832-4.133L433.469,284.3a10.247,10.247,0,0,1,6.764-12.816h0a10.246,10.246,0,0,1,12.816,6.763l11.769,38.071" transform="translate(-344.203 -271.026)"/></g></g></g></svg>